inDegrees=yes
name=ik_20201104_152403_orientations
DataType=double
version=3
OpenSimVersion=4.1
endheader
time	pelvis_tilt	pelvis_list	pelvis_rotation	pelvis_tx	pelvis_ty	pelvis_tz	hip_flexion_r	hip_adduction_r	hip_rotation_r	knee_angle_r	knee_angle_r_beta	ankle_angle_r	subtalar_angle_r	mtp_angle_r	hip_flexion_l	hip_adduction_l	hip_rotation_l	knee_angle_l	knee_angle_l_beta	ankle_angle_l	subtalar_angle_l	mtp_angle_l	lumbar_extension	lumbar_bending	lumbar_rotation	arm_flex_r	arm_add_r	arm_rot_r	elbow_flex_r	pro_sup_r	wrist_flex_r	wrist_dev_r	arm_flex_l	arm_add_l	arm_rot_l	elbow_flex_l	pro_sup_l	wrist_flex_l	wrist_dev_l
12.96666666666689	52.08606191984712	-24.09676873639899	-18.63566639901201	0	0.9399999999999999	0	35.95525942473385	-9.865504316178638	0	52.7581198602435	0.9208028987230598	-4.979615610702591	0	0	40.4342835318688	-6.168498268805028	2.512702992946375	103.8990401207063	1.813380339768011	-4.979615610702591	0	0	0	0	0	0	-8.517680765777326	0	64.07399745441761	44.53890891750248	0	0	0	-8.517680765777326	0	64.07399745441761	44.53890891750248	0	0
12.98333333333356	52.08360897608407	-24.11269273852986	-18.65608382906564	0	0.9399999999999999	0	35.97398509862199	-9.866254138621708	0	52.77013019969796	0.9210125186908221	-4.979748828528911	0	0	40.43883505588894	-6.190886660652575	2.507152322815518	103.9078065729493	1.813533343223371	-4.979748828528911	0	0	0	0	0	0	-8.524839731767408	0	64.09672241972174	44.54109723279273	0	0	0	-8.524839731767408	0	64.09672241972174	44.54109723279273	0	0
13.00000000000023	52.08075781299713	-24.11329681854607	-18.68541762955228	0	0.9399999999999999	0	35.99567322852641	-9.867190754488401	0	52.78394228909671	0.9212535851274103	-4.979921254555864	0	0	40.43736246190278	-6.208112450313684	2.49266463276184	103.8939018079918	1.813290659293147	-4.979921254555864	0	0	0	0	0	0	-8.53300542952088	0	64.12305838845266	44.54376760079783	0	0	0	-8.53300542952088	0	64.12305838845266	44.54376760079783	0	0
13.01666666666689	52.08111899568028	-24.11446553919034	-18.6977906625589	0	0.9399999999999999	0	36.0086459045377	-9.867786808224981	0	52.7921494200884	0.9213968265853576	-4.980033912121001	0	0	40.44456706874625	-6.221613290127843	2.484732863483475	103.9199406648641	1.813745123079024	-4.980033912121001	0	0	0	0	0	0	-8.537822530449269	0	64.13882021910068	44.54543628909671	0	0	0	-8.537822530449269	0	64.13882021910068	44.54543628909671	0	0
13.03333333333356	52.07513207921676	-24.11801242498064	-18.71282731251049	0	0.9399999999999999	0	36.0211257000993	-9.868322459670612	0	52.8000950867129	0.921535504629221	-4.980132204819908	0	0	40.44705311846334	-6.231296348105861	2.473852399910471	103.9361840871596	1.814028624279872	-4.980132204819908	0	0	0	0	0	0	-8.54252533834106	0	64.15397439143959	44.54696655400593	0	0	0	-8.54252533834106	0	64.15397439143959	44.54696655400593	0	0
13.05000000000023	52.06118326903301	-24.12203496942596	-18.73203965776877	0	0.9399999999999999	0	36.03361485551669	-9.868863914266299	0	52.80805566272729	0.9216744428910274	-4.980232331152918	0	0	40.44561606390751	-6.232957524816533	2.47106429997813	103.9279380869544	1.813884704426171	-4.980232331152918	0	0	0	0	0	0	-8.547230749301843	0	64.16914073032332	44.54850688927676	0	0	0	-8.547230749301843	0	64.16914073032332	44.54850688927676	0	0
13.0666666666669	52.06218574907308	-24.12081124312118	-18.74760781450916	0	0.9399999999999999	0	36.04914526310149	-9.86958009461849	0	52.81788625738096	0.9218460191351627	-4.980368065862883	0	0	40.45480037482607	-6.248053165113634	2.463716113947009	103.957996475547	1.814409322274955	-4.980368065862883	0	0	0	0	0	0	-8.552997364877001	0	64.18801070492121	44.55050880680557	0	0	0	-8.552997364877001	0	64.18801070492121	44.55050880680557	0	0
13.08333333333356	52.05588557004893	-24.12071160406874	-18.7642399386899	0	0.9399999999999999	0	36.06941658211331	-9.870436133898981	0	52.8308104759719	0.9220715893028223	-4.980524075363497	0	0	40.45918862093211	-6.271902357713422	2.454427798946237	103.9616326247315	1.814472785050319	-4.980524075363497	0	0	0	0	0	0	-8.56066262322765	0	64.2126227645891	44.55296606634772	0	0	0	-8.56066262322765	0	64.2126227645891	44.55296606634772	0	0
13.10000000000023	52.05215647986974	-24.11872083505292	-18.77838899646462	0	0.9399999999999999	0	36.08892479524128	-9.871247973872146	0	52.84326502763651	0.9222889622362295	-4.980671094691781	0	0	40.46687151812676	-6.294335086335639	2.445606098118972	103.9715737676896	1.814646290726349	-4.980671094691781	0	0	0	0	0	0	-8.568062817499667	0	64.23630558308116	44.55530656975034	0	0	0	-8.568062817499667	0	64.23630558308116	44.55530656975034	0	0
13.1166666666669	52.04616966155611	-24.11544943748464	-18.79739636416112	0	0.9399999999999999	0	36.11023078055072	-9.872136791421415	0	52.85687231791513	0.922526454253866	-4.980832472859991	0	0	40.47108239410856	-6.310917163471896	2.434999717986169	103.9651934224076	1.814534932693764	-4.980832472859991	0	0	0	0	0	0	-8.57614634838626	0	64.26217123460928	44.55786576044572	0	0	0	-8.57614634838626	0	64.26217123460928	44.55786576044572	0	0
13.13333333333357	52.04171917825464	-24.1253812393927	-18.81426108659669	0	0.9399999999999999	0	36.12987976082082	-9.873052044068263	0	52.86932313477509	0.922743762002635	-4.981006995666036	0	0	40.47862600311367	-6.326923805187324	2.42787204829491	103.9902817658141	1.814972806890078	-4.981006995666036	0	0	0	0	0	0	-8.583437659476118	0	64.28604716170645	44.56041467383469	0	0	0	-8.583437659476118	0	64.28604716170645	44.56041467383469	0	0
13.15000000000023	52.03697564135111	-24.13010298427865	-18.84169675320389	0	0.9399999999999999	0	36.15046620947995	-9.873916678895263	0	52.88247387329712	0.9229732856889135	-4.981164759554725	0	0	40.47538350867104	-6.343959356237245	2.414532176886747	103.9685457053215	1.81459344106807	-4.981164759554725	0	0	0	0	0	0	-8.591245813584603	0	64.31103971516862	44.56289746257555	0	-8.160839338688844e-64	0	-8.591245813584603	0	64.31103971516862	44.56289746257555	0	-8.160839338688844e-64
13.1666666666669	52.03805639636859	-24.1386416596032	-18.8694848338023	0	0.9399999999999999	0	36.16634342415887	-9.87457766107979	0	52.89262700770855	0.9231504913137905	-4.981284736863659	0	0	40.48060786830785	-6.361432556868971	2.403609150698173	103.9853957889891	1.814887530507307	-4.981284736863659	0	0	0	0	0	0	-8.597277094479123	0	64.33031465169493	44.56480125469194	0	1.575911739999074e-94	0	-8.597277094479123	0	64.33031465169493	44.56480125469194	0	1.575911739999074e-94
13.18333333333357	52.02882929614057	-24.13870362216463	-18.89264616052118	0	0.9399999999999999	0	36.18729122841112	-9.875461935000041	0	52.9060191875331	0.923384228945748	-4.981446469198428	0	0	40.48081337949136	-6.376463423835915	2.391470418444959	103.9685529016405	1.814593566667531	-4.981446469198428	0	0	0	0	0	0	-8.605218022875075	0	64.35574784064666	44.56733623324215	0	0	0	-8.605218022875075	0	64.35574784064666	44.56733623324215	0	0
13.20000000000024	52.02557790019967	-24.13893948420919	-18.91226527662133	0	0.9399999999999999	0	36.20227194576496	-9.876122313711697	0	52.91555682678555	0.9235506921535707	-4.981569567078093	0	0	40.48632704655833	-6.387335442249465	2.383461232588891	103.9794378119114	1.814783544190542	-4.981569567078093	0	0	0	0	0	0	-8.610844760782975	0	64.37394294441067	44.56920498894152	0	0	0	-8.610844760782975	0	64.37394294441067	44.56920498894152	0	0
13.2166666666669	52.02449054384802	-24.13574152552602	-18.93649503368766	0	0.9399999999999999	0	36.22143330539773	-9.876887140739413	0	52.92785322635527	0.9237653048122031	-4.981706135799612	0	0	40.48664216453641	-6.402906401648045	2.369653555904164	103.9624531527024	1.814487105965016	-4.981706135799612	0	0	0	0	0	0	-8.618192906304273	0	64.39719657197317	44.57143424574343	0	0	0	-8.618192906304273	0	64.39719657197317	44.57143424574343	0	0
13.23333333333357	52.02303063541054	-24.14035367923358	-18.96822685622631	0	0.9399999999999999	0	36.24217059084516	-9.877731203151288	0	52.94114122583486	0.9239972241541252	-4.981858267667702	0	0	40.48628108697711	-6.419905744747372	2.356524903566847	103.9557442024485	1.814370012693733	-4.981858267667702	0	0	0	0	0	0	-8.626116033796517	0	64.42236614476829	44.57387946061863	0	0	0	-8.626116033796517	0	64.42236614476829	44.57387946061863	0	0
13.25000000000024	52.01667679834973	-24.15928381093741	-18.99438673282377	0	0.9399999999999999	0	36.26140621994793	-9.878521350130141	0	52.95345709553579	0.924212176630653	-4.982001217301042	0	0	40.48941320488903	-6.436714528485153	2.348380888071159	103.9550855313824	1.814358516714941	-4.982001217301042	0	0	0	0	0	0	-8.633450499405441	0	64.44571562536341	44.57616236504703	0	0	0	-8.633450499405441	0	64.44571562536341	44.57616236504703	0	0
13.26666666666691	52.01379666702879	-24.17315557220671	-19.01825615631935	0	0.9399999999999999	0	36.27631631586979	-9.879134250805595	0	52.96300452232842	0.9243788106632775	-4.98211211219294	0	0	40.49624783357456	-6.451766485838917	2.342344490454732	103.9741699683654	1.814691602976184	-4.98211211219294	0	0	0	0	0	0	-8.639135235906796	0	64.46381483123693	44.57793286257031	0	0	0	-8.639135235906796	0	64.46381483123693	44.57793286257031	0	0
13.28333333333357	52.0059898293323	-24.1730872915726	-19.04572992674499	0	0.9399999999999999	0	36.29806860346638	-9.880020323897849	0	52.97695366188434	0.9246222690763486	-4.982272075648447	0	0	40.49402688272535	-6.467844874283137	2.328155569650543	103.9578705490507	1.814407124442981	-4.982272075648447	0	0	0	0	0	0	-8.647451394579164	0	64.49021680022895	44.58049790461649	0	0	0	-8.647451394579164	0	64.49021680022895	44.58049790461649	0	0
13.30000000000024	52.00435161780059	-24.16574192778449	-19.0683549640206	0	0.9399999999999999	0	36.31842421232806	-9.880811016764579	0	52.99005226999697	0.9248508829153423	-4.98241178573603	0	0	40.49722394660607	-6.482304970868896	2.314437136982568	103.9519070691166	1.814303042083253	-4.98241178573603	0	0	0	0	0	0	-8.655307603949986	0	64.51491504015888	44.58282010703589	0	0	0	-8.655307603949986	0	64.51491504015888	44.58282010703589	0	0
13.31666666666691	52.00493556939079	-24.16647620910833	-19.09402683751891	0	0.9399999999999999	0	36.33274011893194	-9.881392467863082	0	52.9992311762555	0.9250110850512856	-4.982516573915633	0	0	40.50350588556793	-6.494743276526613	2.304811823013295	103.9699111758048	1.814617273023843	-4.982516573915633	0	0	0	0	0	0	-8.660782790114812	0	64.53229125297274	44.58450500892353	0	0	0	-8.660782790114812	0	64.53229125297274	44.58450500892353	0	0
13.33333333333358	51.99635388952333	-24.16800181237238	-19.10885143657665	0	0.9399999999999999	0	36.34419807638778	-9.881813380221596	0	53.00664182846719	0.9251404253320997	-4.982589105876705	0	0	40.5074315640452	-6.495746344841358	2.300193717657625	103.9780581828401	1.814759465120792	-4.982589105876705	0	0	0	0	0	0	-8.665258172363568	0	64.54618782792375	44.58576209005858	0	0	0	-8.665258172363568	0	64.54618782792375	44.58576209005858	0	0
13.35000000000024	51.98142242188172	-24.16737192567636	-19.12555674109923	0	0.9399999999999999	0	36.35982088412861	-9.882430646808738	0	53.01668567989865	0.9253157236091599	-4.982699310915581	0	0	40.50128487170517	-6.511664766699641	2.291869854329731	103.9606422086563	1.814455499028841	-4.982699310915581	0	0	0	0	0	0	-8.671274396623907	0	64.56514556018433	44.58756391605409	0	0	0	-8.671274396623907	0	64.56514556018433	44.58756391605409	0	0
